<?xml version="1.0" standalone="no"?>
<!DOCTYPE svg PUBLIC "-//W3C//DTD SVG 20010904//EN"
 "http://www.w3.org/TR/2001/REC-SVG-20010904/DTD/svg10.dtd">
<svg version="1.0" xmlns="http://www.w3.org/2000/svg"
 width="65.000000pt" height="65.000000pt" viewBox="0 0 65.000000 65.000000"
 preserveAspectRatio="xMidYMid meet">
<metadata>
Created by potrace 1.11, written by Peter Selinger 2001-2013
</metadata>
<g transform="translate(0.000000,65.000000) scale(0.100000,-0.100000)"
fill="#000000" stroke="none">
<path d="M223 636 c-87 -28 -155 -90 -199 -181 -27 -58 -26 -184 3 -246 30
-66 86 -124 150 -155 55 -27 152 -44 154 -28 4 28 5 91 2 101 -3 6 -23 15 -46
19 -133 22 -202 166 -136 283 73 131 261 129 336 -4 27 -49 26 -135 -2 -183
l-19 -32 -28 27 c-28 27 -29 27 -57 10 -34 -20 -99 -22 -121 -4 -28 22 -50 61
-50 90 0 95 110 143 179 78 55 -52 26 -83 -33 -34 -32 26 -60 24 -88 -8 -21
-24 -15 -58 13 -82 28 -22 40 -22 74 5 15 12 42 23 59 24 17 1 35 3 40 3 5 1
6 19 3 42 -13 98 -135 152 -218 96 -148 -99 -32 -316 137 -255 29 10 34 9 59
-16 26 -26 28 -27 47 -9 63 56 82 179 40 259 -73 142 -255 171 -367 59 -122
-121 -76 -321 87 -376 30 -10 54 -24 56 -33 10 -49 -108 -15 -172 49 -65 65
-81 105 -81 200 0 62 5 89 22 120 31 60 79 104 140 132 47 22 66 25 122 21 81
-6 133 -29 187 -84 70 -70 97 -200 60 -289 -9 -21 -32 -58 -52 -81 -34 -42
-37 -43 -78 -38 -38 6 -45 3 -60 -17 -9 -13 -16 -33 -16 -46 0 -25 34 -53 66
-53 23 0 54 29 54 51 0 8 18 32 41 54 22 22 53 62 67 90 23 43 27 62 27 140 0
101 -16 143 -81 215 -74 81 -217 120 -321 86z m111 -292 c7 -19 -1 -34 -19
-34 -18 0 -26 25 -12 39 15 15 24 14 31 -5z m119 -270 c11 -11 -5 -34 -24 -34
-12 0 -19 7 -19 20 0 19 28 28 43 14z"/>
</g>
</svg>
